# xmcd
#
# Track frame offsets:
#	150
#	14400
#	29450
#	41788
#	51825
#	64513
#	76725
#	90550
#	105313
#	116550
#	127963
#	138175
#	150188
#	162450
#	175050
#	187875
#	202513
#	213963
#
# Disc length: 2996 seconds
#
# Revision: 2
# Processed by: cddbd v1.5.2PL0 Copyright (c) Steve Scherf et al.
# Submitted via: EasyCDDAExtractor 11.1.0.1
#
DISCID=d50bb212
DTITLE=Various Artist - From The Fields Into The Town
DYEAR=1994
DGENRE=Blues
TTITLE0=Muddy Waters - Smokestak Lightnin'
TTITLE1=John Lee Hooker - I'll Never Trust Your Love Again
TTITLE2=Howlin' Wolf - Louise
TTITLE3=Buddy Guy - One Hundred Dollar Bill
TTITLE4=Jimmy Rogers - Walking By Myself
TTITLE5=Lowell Fulson - Trouble With The Blues
TTITLE6=Little Walter - You're So Fine
TTITLE7=Jimmy Witherspoon - Garfield Avenue
TTITLE8=Little Milton - Just A Little Bit
TTITLE9=Sonny Boy Williamson - Your Funeral And My Trial
TTITLE10=Otis Rush - I Can't Stop, Baby
TTITLE11=Memphis Slim - Rockin The Pad
TTITLE12=Sugar Pie De Santo - Use What You Got
TTITLE13=Jimmy McCracklin - I'm To Blame
TTITLE14=Howlin' Wolf - Back Door Man
TTITLE15=Muddy Waters - Things I Used To Do
TTITLE16=Memphis Slim - Worried Life Blues
TTITLE17=Willie Dixon - Whatever I Am, You Made Me
EXTD=
EXTT0=
EXTT1=
EXTT2=
EXTT3=
EXTT4=
EXTT5=
EXTT6=
EXTT7=
EXTT8=
EXTT9=
EXTT10=
EXTT11=
EXTT12=
EXTT13=
EXTT14=
EXTT15=
EXTT16=
EXTT17=
PLAYORDER=
